<?xml version="1.0" encoding="iso-8859-1"?>
<!-- Generator: Adobe Illustrator 19.0.0, SVG Export Plug-In . SVG Version: 6.00 Build 0)  -->
<svg version="1.1" id="Layer_1" xmlns="http://www.w3.org/2000/svg" xmlns:xlink="http://www.w3.org/1999/xlink" x="0px" y="0px"
	 viewBox="0 0 509.287 509.287" style="enable-background:new 0 0 509.287 509.287;" xml:space="preserve">
<circle style="fill:#886C60;" cx="254.644" cy="254.644" r="254.644"/>
<g>
	<polygon style="fill:#FCFCFD;" points="391.968,368.911 320.763,297.367 297.367,320.763 368.911,391.968 313.303,391.968 
		313.303,425.197 425.197,425.197 425.197,313.303 391.968,313.303 	"/>
	<polygon style="fill:#FCFCFD;" points="320.763,211.921 391.968,140.376 391.968,195.984 425.197,195.984 425.197,84.09 
		313.303,84.09 313.303,117.319 368.911,117.319 297.367,188.524 	"/>
	<polygon style="fill:#FCFCFD;" points="188.524,297.367 117.319,368.911 117.319,313.303 84.09,313.303 84.09,425.197 
		195.984,425.197 195.984,391.968 140.376,391.968 211.921,320.763 	"/>
	<polygon style="fill:#FCFCFD;" points="195.984,117.319 195.984,84.09 84.09,84.09 84.09,195.984 117.319,195.984 117.319,140.376 
		188.524,211.921 211.921,188.524 140.376,117.319 	"/>
</g>
<g>
</g>
<g>
</g>
<g>
</g>
<g>
</g>
<g>
</g>
<g>
</g>
<g>
</g>
<g>
</g>
<g>
</g>
<g>
</g>
<g>
</g>
<g>
</g>
<g>
</g>
<g>
</g>
<g>
</g>
</svg>
